<?xml version="1.0" encoding="UTF-8"?>
<svg version="1.1" viewBox="0 0 513.8 394.33" xml:space="preserve" xmlns="http://www.w3.org/2000/svg">
<g transform="translate(.9 -58.832)"><rect x="11.403" y="70.142" width="488.89" height="370.59" rx="16.362" ry="15.708" style="fill:#ffffff;paint-order:normal"/><path d="m25.6 59.732c-14.138 0-25.6 11.461-25.6 25.6v341.33c0 14.138 11.461 25.6 25.6 25.6h460.8c14.138 0 25.6-11.461 25.6-25.6v-341.33c0-14.138-11.461-25.6-25.6-25.6zm0 17.068h460.8c4.713 0 8.5332 3.8182 8.5332 8.5312v341.34c0 4.713-3.8202 8.5312-8.5332 8.5312h-460.8c-4.713 0-8.5332-3.8182-8.5332-8.5312v-341.34c0-4.713 3.8202-8.5312 8.5332-8.5312zm443.63 17.064c-1.9633.02326-3.8684.72405-5.3848 1.998l-196.87 165.37c-6.349 5.337-15.616 5.337-21.965 0l-196.86-165.37c-2.335-1.96-5.5393-2.5264-8.4043-1.4844s-4.9563 3.5341-5.4863 6.5371c-.53 3.003.58102 6.0595 2.916 8.0195l196.87 165.37c12.688 10.683 31.223 10.683 43.912 0l196.86-165.37c1.734-1.455 2.8186-3.5399 3.0156-5.7949s-.5108-4.4955-1.9668-6.2285c-1.454-1.735-3.538-2.8186-5.793-3.0156-.28187-.02463-.56328-.03653-.84375-.0332zm-307.38 179.07c-2.2564.10912-4.414 1.1112-5.959 2.8438l-119.47 128c-2.162 2.214-2.9562 5.4266-2.0742 8.3926.882 2.967 3.3023 5.2225 6.3223 5.8965 3.021.674 6.1685-.33844 8.2285-2.6484l119.47-128c2.162-2.214 2.9562-5.4266 2.0742-8.3926s-3.3013-5.2225-6.3223-5.8965c-.75525-.1685-1.5174-.23169-2.2695-.19531zm188.29 0c-.75221-.0364-1.5143.0268-2.2695.19531-3.021.674-5.4403 2.9305-6.3223 5.8965-.882 2.967-.0878 6.1786 2.0742 8.3926l119.47 128c3.24 3.318 8.5367 3.4414 11.928.27735s3.6348-8.456.54883-11.918l-119.47-128c-1.5442-1.7325-3.7023-2.7346-5.959-2.8438z" style="stroke-width:1.8;stroke:#ffffff"/></g>
</svg>
