<?xml version="1.0" encoding="UTF-8"?>
<svg version="1.1" viewBox="0 0 514.07 514.04" xml:space="preserve" xmlns="http://www.w3.org/2000/svg">
<path d="m499.63 396.02-103.65-69.12c-13.153-8.701-30.784-5.838-40.508 6.579l-30.191 38.818c-3.88 5.116-10.933 6.6-16.546 3.482l-5.743-3.166c-19.038-10.377-42.726-23.296-90.453-71.04s-60.672-71.45-71.049-90.453l-3.149-5.743c-3.161-5.612-1.705-12.695 3.413-16.606l38.792-30.182c12.412-9.725 15.279-27.351 6.588-40.508l-69.12-103.65c-8.907-13.398-26.777-17.42-40.566-9.131l-43.341 26.035c-13.618 8.006-23.609 20.972-27.878 36.181-15.607 56.866-3.866 155.01 140.71 299.6 115 115 200.62 145.92 259.46 145.92 13.543.058 27.033-1.704 40.107-5.239 15.212-4.264 28.18-14.256 36.181-27.878l26.061-43.315c8.301-13.792 4.281-31.673-9.123-40.585z" style="stroke-width:2;stroke:#ffffff"/><path d="m494.05 427.85-26.001 43.341c-5.745 9.832-15.072 17.061-26.027 20.173-52.497 14.413-144.21 2.475-283.01-136.32-138.79-138.8-150.73-230.5-136.32-283.01 3.116-10.968 10.354-20.307 20.198-26.061l43.341-26.001c5.983-3.6 13.739-1.855 17.604 3.959l37.547 56.371 31.514 47.266c3.774 5.707 2.534 13.356-2.85 17.579l-38.801 30.182c-11.808 9.029-15.18 25.366-7.91 38.332l3.081 5.598c10.906 20.002 24.465 44.885 73.967 94.379 49.502 49.493 74.377 63.053 94.37 73.958l5.606 3.089c12.965 7.269 29.303 3.898 38.332-7.91l30.182-38.801c4.224-5.381 11.87-6.62 17.579-2.85l103.64 69.12c5.818 3.862 7.563 11.622 3.958 17.604z" style="fill:#ffffff"/><path d="m291.15 69.302c-4.713 0-8.5312 3.8202-8.5312 8.5332s3.8182 8.5332 8.5312 8.5332c80.081.089 144.98 64.985 145.07 145.07 0 4.713 3.8202 8.5332 8.5332 8.5332s8.5332-3.8202 8.5332-8.5332c-.099-89.503-72.632-162.03-162.13-162.13zm0 51.199c-4.713 0-8.5312 3.8202-8.5312 8.5332s3.8182 8.5332 8.5312 8.5332c51.816.061 93.806 42.051 93.867 93.867 0 4.713 3.8212 8.5332 8.5332 8.5332 4.713 0 8.5332-3.8202 8.5332-8.5332-.071-61.238-49.697-110.86-110.93-110.93zm0 51.201c-4.713 0-8.5312 3.8202-8.5312 8.5332s3.8182 8.5312 8.5312 8.5312c23.552.028 42.639 19.115 42.668 42.668 0 4.713 3.8212 8.5332 8.5332 8.5332s8.5332-3.8202 8.5332-8.5332c-.038-32.974-26.76-59.695-59.734-59.732z" style="stroke-width:2;stroke:#ffffff"/>
</svg>
