<?xml version="1.0" encoding="UTF-8"?>
<svg style="enable-background:new 0 0 461.001 461.001" version="1.1" viewBox="0 0 461 461" xml:space="preserve" xmlns="http://www.w3.org/2000/svg">
<path d="m365.26 67.393h-269.51c-52.878 0-95.744 42.866-95.744 95.744v134.73c0 52.878 42.866 95.744 95.744 95.744h269.51c52.878 0 95.744-42.866 95.744-95.744v-134.73c0-52.878-42.866-95.744-95.744-95.744zm-64.751 169.66-126.06 60.123c-3.359 1.602-7.239-.847-7.239-4.568v-124c0-3.774 3.982-6.22 7.348-4.514l126.06 63.881c3.748 1.899 3.683 7.274-.109 9.082z" style="fill:#F61C0D"/>
<path d="m172.26 164.38c-5.9876.52188-4.2529 7.8592-4.7554 11.886-.20063 38.283-.73017 76.6.36157 114.87-.72239 3.7493 3.5253 7.7579 6.9239 4.8917 42.819-19.397 85.103-40.086 127.48-60.356 2.1036-6.4544-3.152-8.4432-8.1604-10.52-40.539-20.279-80.641-41.508-121.66-60.774z" style="fill:#ffffff;paint-order:normal"/></svg>
